<svg width="24" height="24" viewBox="0 0 24 24" fill="none" xmlns="http://www.w3.org/2000/svg">
  <path d="M11.9995 3.00031C7.03783 3.00031 2.99951 7.03863 2.99951 12.0003C2.99951 16.962 7.03783 21.0003 11.9995 21.0003C16.9612 21.0003 20.9995 16.962 20.9995 12.0003C20.9995 7.03863 16.9612 3.00031 11.9995 3.00031ZM11.9995 4.50031C16.1505 4.50031 19.4995 7.84929 19.4995 12.0003C19.4995 15.7708 16.7333 18.8713 13.1157 19.4095V14.1873H15.2515L15.5869 12.0179H13.1157V10.8328C13.1157 9.93207 13.4117 9.13214 14.2539 9.13214H15.6074V7.23956C15.3697 7.20731 14.8665 7.13702 13.9155 7.13702C11.9295 7.13702 10.7661 8.18551 10.7661 10.575V12.0179H8.72412V14.1873H10.7661V19.3904C7.20615 18.8033 4.49951 15.7301 4.49951 12.0003C4.49951 7.84929 7.84849 4.50031 11.9995 4.50031Z" fill="#071739"/>
</svg>
